PathFileType	4	(X/Y/Z)	C:/ViconProjects/foot_20160225/trc/2_test02_dynamic.trc
DataRate	CameraRate	NumFrames	NumMarkers	Units	OrigDataRate	OrigDataStartFrame	OrigNumFrames
120.000000	120.000000	7	39	mm	120.000000	305	406
Frame#	Time	LFWT			RFWT			VBWT			LKNE			LANK			LMT5			LMT1			LHEL			LTOE			RKNE			RANK			RMT5			RMT1			RHEL			RTOE			T10			FHEAD			THEAD			RHEAD			LBSH			LELB			LOWR			RBSH			RELB			ROWR			LTHI			RTHI			LSHAN			RSHAN			LIHEL			LOHEL			RIHEL			ROHEL			LMT3			LNAVI			LCUNE			RMT3			RNAVI			RCUNE			
		X0	Y0	Z0	X1	Y1	Z1	X2	Y2	Z2	X3	Y3	Z3	X4	Y4	Z4	X5	Y5	Z5	X6	Y6	Z6	X7	Y7	Z7	X8	Y8	Z8	X9	Y9	Z9	X10	Y10	Z10	X11	Y11	Z11	X12	Y12	Z12	X13	Y13	Z13	X14	Y14	Z14	X15	Y15	Z15	X16	Y16	Z16	X17	Y17	Z17	X18	Y18	Z18	X19	Y19	Z19	X20	Y20	Z20	X21	Y21	Z21	X22	Y22	Z22	X23	Y23	Z23	X24	Y24	Z24	X25	Y25	Z25	X26	Y26	Z26	X27	Y27	Z27	X28	Y28	Z28	X29	Y29	Z29	X30	Y30	Z30	X31	Y31	Z31	X32	Y32	Z32	X33	Y33	Z33	X34	Y34	Z34	X35	Y35	Z35	X36	Y36	Z36	X37	Y37	Z37	X38	Y38	Z38	
305	2.541667	-1481.096069	87.371674	925.055359	-1444.237915	373.595490	920.937073	-1238.310547	195.092468	919.503662	-1593.901855	57.266590	477.841888	-1691.558716	65.129936	81.917023	-1790.668579	35.590370	93.861259	-1839.861694	93.051208	123.278282	-1650.258911	132.720413	40.686218	-1871.091553	75.169121	132.956131	-1284.880737	349.116608	445.778717	-1126.265503	328.467926	79.876556	-1215.333374	355.699005	33.737591	-1268.004517	277.897156	43.011749	-1054.249756	255.168472	65.350082	-1307.834717	300.819122	34.492142	-1257.063110	154.185135	1249.798340	-1579.634644	200.820908	1596.733154	-1480.886719	221.221756	1692.853394	-1364.240479	233.236679	1637.288208	-1413.285767	8.314480	1391.790283	-1308.579956	-104.207031	1097.264771	-1324.391724	-139.743942	841.386658	-1401.032837	412.961700	1401.457520	-1448.173462	568.451111	1106.848389	-1685.922852	538.824097	1002.391846	-1610.907593	114.681480	650.635864	-1401.357910	315.166077	535.753296	-1665.799072	126.362961	357.024933	-1226.912109	261.438660	224.506088	-1686.675903	158.949875	58.824539	-1669.273193	89.348503	49.637581	-1098.879150	228.670532	58.595161	-1083.277344	301.488953	60.836399	-1824.997314	59.772591	114.520927	-1759.922852	145.905090	98.462952	-1739.633789	50.637741	67.247238	-1258.022339	316.086578	37.456619	-1174.152100	234.331512	54.920212	-1152.070068	333.062500	41.284439
306	2.550000	-1494.409424	87.085388	923.042419	-1455.818726	373.019958	919.023499	-1250.831543	193.766144	917.128906	-1607.581055	57.469910	476.713959	-1715.825317	63.515301	83.229080	-1815.222046	34.420090	97.995392	-1863.673828	92.107658	127.644867	-1673.453735	131.173752	41.728031	-1894.438232	74.523163	137.843582	-1291.535400	349.242493	445.122375	-1128.503418	329.433929	81.367584	-1215.388062	355.724640	33.725491	-1268.046021	278.207733	42.905930	-1054.892822	255.431412	68.570419	-1307.903687	300.987823	34.357231	-1269.311157	152.649963	1247.442871	-1591.908447	199.156754	1594.093018	-1493.372437	220.145325	1690.367920	-1376.175903	232.235001	1635.255859	-1425.231323	7.087870	1389.672974	-1317.775635	-104.727509	1095.827393	-1328.694458	-140.759155	839.693237	-1412.520996	411.552277	1398.970825	-1462.170410	567.530273	1105.077271	-1701.655762	537.918945	1004.714722	-1621.959229	115.752510	647.531921	-1409.742432	316.467499	533.581238	-1681.605347	126.595551	357.404602	-1230.398071	261.833527	224.639160	-1710.623535	157.245636	60.490520	-1694.891235	87.912827	50.060509	-1099.432861	228.595428	61.276711	-1083.812622	301.629364	63.171700	-1848.609131	58.646332	119.580933	-1783.581787	144.843475	101.150307	-1764.500488	49.677090	69.600082	-1258.084961	316.177948	37.453770	-1174.712402	234.459656	56.009762	-1153.005615	333.759949	42.224419
307	2.558333	-1507.812134	86.656761	920.942017	-1467.674316	372.840393	917.246338	-1263.162964	191.757782	914.745483	-1621.170654	57.700508	475.630127	-1738.360352	62.453041	84.587677	-1837.141968	33.787449	100.851837	-1885.331665	91.163193	131.567245	-1696.592041	130.234406	41.781490	-1915.971313	73.843803	141.959381	-1298.902222	349.417664	444.544525	-1129.116089	329.297119	83.244080	-1215.450806	355.798065	33.671589	-1268.203125	278.389282	42.973000	-1056.146851	255.827667	72.191818	-1307.867920	301.161957	34.253590	-1281.596802	151.145020	1245.005371	-1604.663818	197.940826	1591.472168	-1506.241943	218.837234	1687.953735	-1389.419800	231.113297	1632.736328	-1437.525391	5.587860	1387.135620	-1326.997437	-105.471413	1094.483032	-1334.706177	-142.004852	838.599548	-1424.549438	410.089355	1396.648071	-1476.247559	566.470215	1104.250732	-1716.828735	536.544250	1006.538147	-1633.082886	117.069519	644.729614	-1418.389648	317.538483	531.582825	-1696.957642	126.609268	357.571869	-1234.109985	262.115143	224.839432	-1734.047607	156.430710	60.739090	-1716.761719	86.584480	51.124859	-1100.350464	228.987808	64.234589	-1084.790649	301.711395	66.471283	-1870.648926	58.093769	122.523048	-1805.531860	144.174713	103.201241	-1786.807373	48.681290	71.759773	-1258.086060	316.276459	37.395920	-1175.701904	235.052124	57.570210	-1153.257690	334.229919	43.109940
308	2.566667	-1521.252563	86.469116	919.062378	-1479.241699	372.264343	915.338562	-1275.810181	189.388840	912.435181	-1635.300293	57.763309	474.536499	-1758.724609	61.250999	85.912872	-1857.228271	33.300110	103.223747	-1904.434814	91.813499	134.000748	-1717.103149	128.060745	41.823078	-1935.273682	73.524597	145.052567	-1306.375732	350.107697	444.475555	-1126.015381	326.569641	85.989700	-1215.703369	355.896942	33.582680	-1268.291992	278.473663	43.010040	-1057.244995	256.300110	75.955231	-1307.921387	301.222015	34.178768	-1293.235840	149.560852	1242.939819	-1617.344971	195.870163	1589.004150	-1519.044556	217.691498	1685.633301	-1401.914917	229.888885	1630.436768	-1449.789185	3.906890	1385.316040	-1336.906982	-106.424477	1093.152588	-1340.826904	-143.015564	837.058960	-1436.614990	408.487183	1394.411621	-1489.717285	565.161987	1102.459473	-1731.370483	535.708069	1007.613159	-1644.902832	118.514359	642.808777	-1427.006348	318.589294	529.581421	-1711.927368	126.811661	357.376282	-1237.965576	263.015594	225.242569	-1753.341553	155.159668	60.950508	-1738.118530	85.706367	51.123550	-1101.109131	229.641815	67.033501	-1084.827393	302.390564	70.256538	-1889.815430	58.150219	124.843750	-1825.105713	143.522537	104.763634	-1807.277832	48.252140	73.250343	-1258.085327	316.349915	37.321770	-1176.510742	235.306625	59.437969	-1153.825928	334.801025	45.135830
309	2.575000	-1534.667847	86.065399	917.083801	-1491.304199	372.002563	913.477844	-1290.365967	187.317917	910.384033	-1649.802612	57.835770	473.791412	-1776.536987	59.386509	86.923264	-1874.893799	32.956390	104.329567	-1921.833618	91.313538	135.171463	-1736.145142	127.504517	40.743050	-1952.499268	74.080681	147.298721	-1314.073242	350.540527	443.971771	-1122.693970	323.774139	89.035210	-1215.303711	356.037323	32.771400	-1268.373657	278.616913	43.083221	-1058.474609	256.430084	79.982674	-1304.366089	300.414185	30.790461	-1305.951416	147.701492	1240.722046	-1629.702148	194.309631	1586.753052	-1531.977051	216.091873	1683.393555	-1414.662476	228.585297	1628.856689	-1461.935059	2.382060	1383.008545	-1346.883789	-106.642868	1091.847534	-1347.822876	-144.024658	835.559326	-1448.627808	406.654022	1392.524414	-1502.565186	564.242188	1101.312012	-1745.509033	534.307129	1008.614563	-1657.583374	119.579681	641.799866	-1436.401489	319.851563	527.970947	-1726.588989	126.795853	356.788818	-1241.932983	263.472351	225.896027	-1771.023560	153.703766	61.312881	-1755.882690	85.071228	51.520309	-1102.034180	230.082703	70.587730	-1085.688843	302.284332	73.347816	-1907.111328	57.868000	126.452431	-1842.425659	143.201569	105.093338	-1824.704834	46.977661	73.985382	-1258.125732	316.221863	37.239510	-1177.161865	235.747665	61.258930	-1155.265503	334.773346	47.130421
310	2.583333	-1548.390015	85.500816	915.482300	-1503.406128	371.378296	911.912109	-1302.587402	185.491745	908.538696	-1664.272827	57.804138	472.815765	-1792.084229	59.838371	84.609047	-1890.368164	33.314320	104.097893	-1937.416626	91.142288	135.212463	-1750.348022	126.274498	39.778969	-1967.669800	74.449532	147.084518	-1321.841919	350.646515	443.229553	-1124.018311	324.535797	91.747643	-1216.180176	356.145355	33.633080	-1268.529541	278.803894	43.108971	-1060.063354	257.214752	84.634956	-1304.964233	300.176910	30.942560	-1318.188232	146.100555	1238.437744	-1642.476929	192.238571	1584.485840	-1544.827759	214.416733	1681.541626	-1427.811279	227.154800	1626.744751	-1474.119141	0.635160	1380.975098	-1357.352173	-107.961212	1090.442871	-1355.622803	-145.219864	834.433167	-1460.915161	404.978882	1390.825073	-1515.431641	562.049438	1099.719482	-1759.378296	533.093506	1008.963379	-1671.336060	120.637077	641.035034	-1446.195679	320.857025	526.356262	-1740.827881	126.621193	355.670166	-1246.263184	264.505005	226.390381	-1786.983887	153.404694	59.193790	-1771.013184	83.965050	50.448891	-1103.388306	230.906113	74.290932	-1087.412964	303.028961	76.981033	-1922.790161	58.452099	126.287804	-1857.512817	143.071396	104.393333	-1841.067139	47.127499	73.233856	-1258.492310	316.826202	37.652821	-1178.516113	236.920029	64.278954	-1156.150879	335.171417	48.575939
311	2.591667	-1562.260254	84.489021	914.104736	-1515.852417	370.423309	910.262939	-1316.812134	182.654190	906.399597	-1678.825195	57.338661	471.523132	-1805.811523	59.325619	83.502548	-1904.417847	33.596939	102.338676	-1950.667480	92.254013	133.341385	-1764.506958	125.724762	37.573238	-1981.009399	75.664948	144.030655	-1330.219971	351.069244	442.762024	-1125.765869	325.041382	94.918419	-1216.335815	356.328979	33.575409	-1268.045654	279.191132	42.368870	-1061.742432	258.238251	89.126404	-1305.270142	300.524750	31.173731	-1330.706543	144.295242	1236.144043	-1655.261230	190.123978	1582.537231	-1557.969360	212.930191	1679.578125	-1440.673340	225.625076	1624.829102	-1486.263306	-1.405660	1379.383423	-1368.237549	-108.845100	1088.909180	-1363.859619	-145.624802	832.911255	-1472.761108	403.159302	1389.039429	-1528.252319	560.112793	1098.537720	-1772.407471	531.910583	1008.915405	-1686.098389	121.901077	641.186096	-1456.042603	321.614227	524.600220	-1754.466064	126.555130	353.732666	-1251.379272	265.177948	227.422012	-1799.330078	152.893585	57.618801	-1784.539185	83.121658	48.292641	-1105.241943	231.150101	78.556877	-1087.209961	304.118927	80.656517	-1936.415527	58.500172	124.766388	-1870.468140	143.202560	102.361237	-1854.503418	46.472450	71.798477	-1258.733154	317.052490	37.700432	-1179.942505	237.503998	66.376747	-1155.740723	336.305054	49.744869
